<svg xmlns="http://www.w3.org/2000/svg" viewBox="0 0 64 64" width="64" height="64" fill="none">
  <!-- ====== Definitions: gradients & filters ====== -->
  <defs>
    <!-- Gradients -->
    <linearGradient id="laurelGradient" x1="0%" y1="0%" x2="100%" y2="100%">
      <stop offset="0%" stop-color="#fde047"/>
      <stop offset="100%" stop-color="#ca8a04"/>
    </linearGradient>

    <linearGradient id="redRibbonGradient" x1="0%" y1="0%" x2="0%" y2="100%">
      <stop offset="0%" stop-color="#ef4444"/>
      <stop offset="50%" stop-color="#dc2626"/>
      <stop offset="100%" stop-color="#991b1b"/>
    </linearGradient>

    <linearGradient id="platformGradient" x1="50%" y1="0%" x2="50%" y2="100%">
      <stop offset="0%" stop-color="#a1a1aa"/>
      <stop offset="100%" stop-color="#52525b"/>
    </linearGradient>

    <linearGradient id="platformHighlight" x1="50%" y1="0%" x2="50%" y2="100%">
      <stop offset="0%" stop-color="#e4e4e7"/>
      <stop offset="100%" stop-color="#a1a1aa"/>
    </linearGradient>

    <radialGradient id="gemGradient" cx="50%" cy="50%" r="50%">
      <stop offset="0%" stop-color="#fef08a"/>
      <stop offset="100%" stop-color="#f59e0b"/>
    </radialGradient>

    <linearGradient id="glowGradient" x1="0%" y1="0%" x2="100%" y2="100%">
      <stop offset="0%" stop-color="#fca5a5" stop-opacity="0.7"/>
      <stop offset="100%" stop-color="#ef4444" stop-opacity="0.7"/>
    </linearGradient>

    <linearGradient id="shieldGradient" x1="0%" y1="0%" x2="100%" y2="100%">
      <stop offset="0%" stop-color="#738299"/>
      <stop offset="100%" stop-color="#1e293b"/>
    </linearGradient>

    <linearGradient id="cyanGradient" x1="0%" y1="0%" x2="0%" y2="100%">
      <stop offset="0%" stop-color="#38bdf8"/>
      <stop offset="100%" stop-color="#0891b2"/>
    </linearGradient>

    <linearGradient id="symbolGradient" x1="0%" y1="0%" x2="100%" y2="100%">
      <stop offset="0%" stop-color="#fef08a"/>
      <stop offset="100%" stop-color="#f59e0b"/>
    </linearGradient>

    <linearGradient id="highlightGradient" x1="0%" y1="0%" x2="0%" y2="100%">
      <stop offset="0%" stop-color="#ffffff" stop-opacity="0.35"/>
      <stop offset="100%" stop-color="#ffffff" stop-opacity="0"/>
    </linearGradient>

    <!-- Filters -->
    <filter id="elementDropShadow" x="-50%" y="-50%" width="200%" height="200%">
      <feDropShadow dx="0" dy="1.5" stdDeviation="1.5" flood-color="#000" flood-opacity="0.4"/>
    </filter>

    <filter id="softGlow" x="-50%" y="-50%" width="200%" height="200%">
      <feGaussianBlur stdDeviation="2" result="coloredBlur"/>
      <feMerge>
        <feMergeNode in="coloredBlur"/>
        <feMergeNode in="SourceGraphic"/>
      </feMerge>
    </filter>

    <filter id="shieldTexture" x="0" y="0" width="100%" height="100%">
      <feTurbulence type="fractalNoise" baseFrequency="0.05" numOctaves="2" result="noise"/>
      <feDiffuseLighting in="noise" lighting-color="#fff" surfaceScale="2" result="light">
        <fePointLight x="32" y="32" z="100"/>
      </feDiffuseLighting>
      <feComposite in="SourceGraphic" in2="light" operator="arithmetic" k1="1" k2="0" k3="0" k4="0"/>
    </filter>

    <filter id="gemGlow" x="-100%" y="-100%" width="300%" height="300%">
      <feGaussianBlur stdDeviation="2.5" result="glowBlur"/>
      <feFlood flood-color="#f59e0b" flood-opacity="0.8" result="floodColor"/>
      <feComposite in="floodColor" in2="glowBlur" operator="in" result="coloredGlow"/>
      <feMerge>
        <feMergeNode in="coloredGlow"/>
        <feMergeNode in="SourceGraphic"/>
      </feMerge>
    </filter>

    <filter id="stoneTexture" x="0" y="0" width="100%" height="100%">
      <feTurbulence type="fractalNoise" baseFrequency="0.2" numOctaves="3" result="noise"/>
      <feDiffuseLighting in="noise" lighting-color="#a1a1aa" surfaceScale="1.5" result="light">
        <feDistantLight azimuth="235" elevation="60"/>
      </feDiffuseLighting>
      <feComposite in="SourceGraphic" in2="light" operator="arithmetic" k1="1.5" k2="0" k3="0" k4="0"/>
    </filter>
  </defs>

  <!-- ====== Platform (back-most). stoneTexture applied, then drop shadow ====== -->
  <g filter="url(#elementDropShadow)">
    <g filter="url(#stoneTexture)">
      <!-- main curved base -->
      <path d="M6 53 L58 53 L52 62 C45 66,19 66,12 62 L6 53 Z" fill="url(#platformGradient)"/>
      <!-- top surface -->
      <path d="M6 53 L11 47 H53 L58 53 Z" fill="url(#platformHighlight)"/>
      <!-- top highlight line -->
      <path d="M11 47 H53" stroke="#fafafa" stroke-width="0.75" fill="none"/>
      <!-- glowing gem (center) -->
      <g filter="url(#gemGlow)">
        <circle cx="32" cy="50" r="3" fill="url(#gemGradient)" stroke="#fef08a" stroke-width="0.5"/>
      </g>
    </g>
  </g>

  <!-- ====== Laurel wreath ====== -->
  <g id="laurel-wreath" fill="url(#laurelGradient)" filter="url(#elementDropShadow)">
    <!-- left branch (three layered shapes for a jagged look) -->
    <path d="M30 58 C5 55,-15 35,4 15 L6 20 C-5 38,15 55,31 59 Z"/>
    <path d="M27 53 C2 48,-12 32,8 18 L10 23 C-3 35,12 49,28 54 Z"/>
    <path d="M24 47 C0 42,-8 28,10 20 L12 25 C0 32,8 43,25 48 Z"/>
    <!-- right branch -->
    <path d="M34 58 C59 55,79 35,60 15 L58 20 C69 38,49 55,33 59 Z"/>
    <path d="M37 53 C62 48,76 32,56 18 L54 23 C67 35,52 49,36 54 Z"/>
    <path d="M40 47 C64 42,72 28,54 20 L52 25 C64 32,56 43,39 48 Z"/>
  </g>

  <!-- ====== Shield (center) with subtle texture and drop shadow ====== -->
  <g filter="url(#elementDropShadow)">
    <g filter="url(#shieldTexture)">
      <path d="M32 4 L56 16 V36 C56 42,48 48,32 54 C16 48,8 42,8 36 V16 Z"
            fill="url(#shieldGradient)"
            stroke="#1e293b" stroke-width="2" stroke-linejoin="round"/>
      <!-- inner highlight / bevel -->
      <path d="M32 6 L54 17 V36 C54 41,47 46,32 52 C17 46,10 41,10 36 V17 Z"
            fill="none"
            stroke="url(#highlightGradient)"
            stroke-width="1.5"
            stroke-linejoin="round"
            opacity="0.8"/>
      <!-- central vertical spine (dark + highlight) -->
      <path d="M32 4 V54" stroke="#1e293b" stroke-width="2.5" stroke-linecap="round"/>
      <path d="M32 4 V54" stroke="url(#highlightGradient)" stroke-width="1" stroke-linecap="round"/>
    </g>
  </g>

  <!-- ====== Blue ribbon (underneath) ====== -->
  <g id="blue-ribbon" fill="url(#cyanGradient)" filter="url(#elementDropShadow)">
    <path d="M58 27 L10 47 L8 41 L56 21 Z"/>
    <path d="M58 27 C60 25,62 23,62 21 L56 21 Z"/>
    <path d="M10 47 C8 49,6 51,2 51 L8 41 Z"/>
    <path d="M56 23 L10 45" fill="none" stroke="#bae6fd" stroke-opacity="0.8" stroke-width="1.5" stroke-linecap="round"/>
  </g>

  <!-- ====== Red ribbon (on top) ====== -->
  <g id="red-ribbon" fill="url(#redRibbonGradient)" filter="url(#elementDropShadow)">
    <path d="M6 27 L54 47 L56 41 L8 21 Z"/>
    <path d="M6 27 C4 25,2 23,2 21 L8 21 Z"/>
    <path d="M54 47 C56 49,58 51,62 51 L56 41 Z"/>
    <path d="M8 23 L54 45" fill="none" stroke="#fca5a5" stroke-opacity="0.8" stroke-width="1.5" stroke-linecap="round"/>
  </g>

  <!-- ====== Central symbol (crest mark) ====== -->
  <g id="central-symbol">
    <!-- main warm stroke with subtle glow -->
    <path d="M32 10 V20 M24 26 L32 20 L40 26"
          fill="none"
          stroke="url(#symbolGradient)"
          stroke-width="5"
          stroke-linecap="round"
          stroke-linejoin="round"
          opacity="1"
          filter="url(#softGlow)"/>
    <!-- white inner stroke for crispness -->
    <path d="M32 10 V20 M24 26 L32 20 L40 26"
          fill="none"
          stroke="#fff"
          stroke-width="2"
          stroke-linecap="round"
          stroke-linejoin="round"/>
  </g>
</svg>
